# xmcd CD database file generated by Grip 3.1.4
# 
# Track frame offsets:
#       182
#       15602
#       31072
#       47160
#       62195
#       72012
#       86697
#       100597
#       118362
#       138557
#       152150
#       166700
#       176690
# 
# Disc length: 2581 seconds
# 
# Revision: 1
# Processed by: cddbd v1.4PL0 Copyright (c) Steve Scherf et al.
# Submitted via: Grip 3.1.4
# 
DISCID=a80a130d
DTITLE=FreeBidou - Baby Foot Party
DYEAR=2003
DGENRE=Jazz
TTITLE0=BATMAN en Roumanie
TTITLE1=La vengeance du clown qui pue
TTITLE2=Rumbala
TTITLE3=Compilation
TTITLE4=Baby Foot Party
TTITLE5=Éclaircie 1
TTITLE6=Médicament
TTITLE7=E.P.O.
TTITLE8=Cuite au Gin's Club
TTITLE9=À bientôt
TTITLE10=Amicalement vôtre
TTITLE11=Sur ma mob
TTITLE12=Éclaircie 2
EXTD=YEAR: 2003
EXTT0=
EXTT1=
EXTT2=
EXTT3=
EXTT4=
EXTT5=
EXTT6=
EXTT7=
EXTT8=
EXTT9=
EXTT10=
EXTT11=
EXTT12=
PLAYORDER=
